# 3ds Max Wavefront OBJ Exporter v0.97b - (c)2007 guruware
# File Created: 11.09.2017 09:14:10

mtllib casquillo.mtl

#
# object casquillo
#

v  -0.0237 0.0000 -2.8343
v  0.1126 0.7726 -2.8343
v  0.5773 0.5042 -2.8343
v  0.7608 0.0000 -2.8343
v  -0.7608 0.2683 -2.8343
v  -0.4159 0.6794 -2.8343
v  -0.4159 -0.6794 -2.8343
v  -0.7608 -0.2683 -2.8343
v  0.5773 -0.5042 -2.8343
v  0.1126 -0.7725 -2.8343
v  0.5773 0.5042 -2.6695
v  0.7608 0.0000 -2.6695
v  0.1126 0.7726 -2.6695
v  -0.4159 0.6794 -2.6695
v  -0.7608 0.2683 -2.6695
v  -0.7608 -0.2683 -2.6695
v  -0.4159 -0.6794 -2.6695
v  0.1126 -0.7725 -2.6695
v  0.5773 -0.5042 -2.6695
v  -0.0237 0.0000 1.4610
v  0.4397 -0.3888 1.4610
v  0.5812 0.0000 1.4610
v  0.4397 0.3888 1.4610
v  0.0814 0.5957 1.4610
v  -0.3261 0.5238 1.4610
v  -0.5920 0.2069 1.4610
v  -0.5920 -0.2069 1.4610
v  -0.3261 -0.5238 1.4610
v  0.0814 -0.5957 1.4610
v  0.5195 0.4557 -2.6097
v  0.6854 0.0000 -2.6097
v  0.0995 0.6982 -2.6097
v  -0.3782 0.6140 -2.6097
v  -0.6899 0.2425 -2.6097
v  -0.6899 -0.2425 -2.6097
v  -0.3782 -0.6140 -2.6097
v  0.0995 -0.6982 -2.6097
v  0.5195 -0.4557 -2.6097
v  0.5563 0.4866 -2.5141
v  0.7334 0.0000 -2.5141
v  0.1078 0.7455 -2.5141
v  -0.4022 0.6556 -2.5141
v  -0.7350 0.2589 -2.5141
v  -0.7350 -0.2589 -2.5141
v  -0.4022 -0.6556 -2.5141
v  0.1078 -0.7455 -2.5141
v  0.5563 -0.4866 -2.5141
v  0.5563 0.4866 0.6584
v  0.7334 0.0000 0.6584
v  0.1078 0.7455 0.6584
v  -0.4022 0.6556 0.6584
v  -0.7350 0.2589 0.6584
v  -0.7350 -0.2589 0.6584
v  -0.4022 -0.6556 0.6584
v  0.1078 -0.7455 0.6584
v  0.5563 -0.4866 0.6584
v  0.4397 0.3888 1.1135
v  0.5812 0.0000 1.1135
v  0.0814 0.5957 1.1135
v  -0.3261 0.5238 1.1135
v  -0.5920 0.2069 1.1135
v  -0.5920 -0.2069 1.1135
v  -0.3261 -0.5238 1.1135
v  0.0814 -0.5957 1.1135
v  0.4397 -0.3888 1.1135
# 65 vertices

vn 0.0000 0.0000 -1.0000
vn 0.1338 0.7586 -0.6377
vn 0.5901 0.4952 -0.6377
vn 0.7704 0.0000 -0.6376
vn -0.7239 0.2635 -0.6376
vn -0.3851 0.6672 -0.6376
vn -0.3852 -0.6671 -0.6376
vn -0.7239 -0.2635 -0.6376
vn 0.5901 -0.4952 -0.6376
vn 0.1338 -0.7586 -0.6376
vn 0.7015 0.5886 0.4020
vn 0.9156 -0.0000 0.4020
vn 0.1590 0.9018 0.4020
vn -0.4579 0.7930 0.4020
vn -0.8604 0.3131 0.4020
vn -0.8604 -0.3132 0.4020
vn -0.4578 -0.7930 0.4020
vn 0.1590 -0.9017 0.4020
vn 0.7014 -0.5886 0.4020
vn -0.0000 0.0000 1.0000
vn 0.5901 -0.4952 0.6376
vn 0.7704 0.0000 0.6376
vn 0.5901 0.4952 0.6377
vn 0.1337 0.7587 0.6376
vn -0.3852 0.6672 0.6376
vn -0.7239 0.2635 0.6376
vn -0.7239 -0.2634 0.6377
vn -0.3852 -0.6672 0.6376
vn 0.1338 -0.7587 0.6376
vn 0.7413 0.6220 0.2521
vn 0.9677 -0.0000 0.2521
vn 0.1680 0.9530 0.2521
vn -0.4839 0.8381 0.2521
vn -0.9093 0.3310 0.2521
vn -0.9093 -0.3310 0.2521
vn -0.4839 -0.8381 0.2521
vn 0.1680 -0.9530 0.2521
vn 0.7413 -0.6220 0.2521
vn 0.7473 0.6270 -0.2200
vn 0.9755 0.0000 -0.2200
vn 0.1694 0.9607 -0.2200
vn -0.4877 0.8448 -0.2200
vn -0.9167 0.3336 -0.2200
vn -0.9167 -0.3336 -0.2200
vn -0.4877 -0.8448 -0.2200
vn 0.1694 -0.9607 -0.2201
vn 0.7473 -0.6271 -0.2200
vn 0.7567 0.6350 0.1553
vn 0.9879 0.0000 0.1553
vn 0.1716 0.9728 0.1554
vn -0.4939 0.8555 0.1553
vn -0.9283 0.3379 0.1553
vn -0.9283 -0.3379 0.1553
vn -0.4939 -0.8555 0.1553
vn 0.1715 -0.9729 0.1553
vn 0.7567 -0.6350 0.1553
vn 0.7554 0.6338 0.1665
vn 0.9860 -0.0000 0.1665
vn 0.1712 0.9711 0.1665
vn -0.4930 0.8539 0.1665
vn -0.9266 0.3372 0.1665
vn -0.9266 -0.3372 0.1665
vn -0.4930 -0.8539 0.1665
vn 0.1712 -0.9711 0.1665
vn 0.7554 -0.6338 0.1665
# 65 vertex normals

vt 0.5000 0.0000 0.0000
vt 0.9722 0.0000 1.0000
vt 0.8611 0.0000 1.0000
vt 0.7500 0.0000 1.0000
vt 0.1944 0.0000 1.0000
vt 0.0833 0.0000 1.0000
vt -0.0278 0.0000 1.0000
vt 0.4167 0.0000 1.0000
vt 0.3056 0.0000 1.0000
vt 0.6389 0.0000 1.0000
vt 0.5278 0.0000 1.0000
vt 0.8611 1.0000 1.0000
vt 0.7500 1.0000 1.0000
vt 0.9722 1.0000 1.0000
vt 0.0833 1.0000 1.0000
vt -0.0278 1.0000 1.0000
vt 0.1944 1.0000 1.0000
vt 0.3056 1.0000 1.0000
vt 0.4167 1.0000 1.0000
vt 0.5278 1.0000 1.0000
vt 0.6389 1.0000 1.0000
vt 0.5000 1.0000 0.0000
vt 0.8624 1.0000 0.5321
# 23 texture coords

o casquillo
g casquillo
usemtl wire_225088199
s 1
f 1/1/1 2/2/2 3/3/3 4/4/4 
f 1/1/1 5/5/5 6/6/6 2/7/2 
f 1/1/1 7/8/7 8/9/8 5/5/5 
f 1/1/1 9/10/9 10/11/10 7/8/7 
f 1/1/1 4/4/4 9/10/9 
s 8
f 4/4/4 3/3/3 11/12/11 12/13/12 
f 3/3/3 2/2/2 13/14/13 11/12/11 
f 2/7/2 6/6/6 14/15/14 13/16/13 
f 6/6/6 5/5/5 15/17/15 14/15/14 
f 5/5/5 8/9/8 16/18/16 15/17/15 
f 8/9/8 7/8/7 17/19/17 16/18/16 
f 7/8/7 10/11/10 18/20/18 17/19/17 
f 10/11/10 9/10/9 19/21/19 18/20/18 
f 9/10/9 4/4/4 12/13/12 19/21/19 
s 1
f 20/22/20 21/21/21 22/13/22 23/12/23 
f 20/22/20 23/12/23 24/14/24 25/23/25 
f 20/22/20 25/15/25 26/17/26 27/18/27 
f 20/22/20 27/18/27 28/19/28 29/20/29 
f 20/22/20 29/20/29 21/21/21 
s off
f 12/13/12 11/12/11 30/12/30 31/13/31 
f 11/12/11 13/14/13 32/14/32 30/12/30 
f 13/16/13 14/15/14 33/15/33 32/16/32 
f 14/15/14 15/17/15 34/17/34 33/15/33 
f 15/17/15 16/18/16 35/18/35 34/17/34 
f 16/18/16 17/19/17 36/19/36 35/18/35 
f 17/19/17 18/20/18 37/20/37 36/19/36 
f 18/20/18 19/21/19 38/21/38 37/20/37 
f 19/21/19 12/13/12 31/13/31 38/21/38 
f 31/13/31 30/12/30 39/12/39 40/13/40 
f 30/12/30 32/14/32 41/14/41 39/12/39 
f 32/16/32 33/15/33 42/15/42 41/16/41 
f 33/15/33 34/17/34 43/17/43 42/15/42 
f 34/17/34 35/18/35 44/18/44 43/17/43 
f 35/18/35 36/19/36 45/19/45 44/18/44 
f 36/19/36 37/20/37 46/20/46 45/19/45 
f 37/20/37 38/21/38 47/21/47 46/20/46 
f 38/21/38 31/13/31 40/13/40 47/21/47 
f 40/13/40 39/12/39 48/12/48 49/13/49 
f 39/12/39 41/14/41 50/14/50 48/12/48 
f 41/16/41 42/15/42 51/15/51 50/16/50 
f 42/15/42 43/17/43 52/17/52 51/15/51 
f 43/17/43 44/18/44 53/18/53 52/17/52 
f 44/18/44 45/19/45 54/19/54 53/18/53 
f 45/19/45 46/20/46 55/20/55 54/19/54 
f 46/20/46 47/21/47 56/21/56 55/20/55 
f 47/21/47 40/13/40 49/13/49 56/21/56 
f 49/13/49 48/12/48 57/12/57 58/13/58 
f 48/12/48 50/14/50 59/14/59 57/12/57 
f 50/16/50 51/15/51 60/15/60 59/16/59 
f 51/15/51 52/17/52 61/17/61 60/15/60 
f 52/17/52 53/18/53 62/18/62 61/17/61 
f 53/18/53 54/19/54 63/19/63 62/18/62 
f 54/19/54 55/20/55 64/20/64 63/19/63 
f 55/20/55 56/21/56 65/21/65 64/20/64 
f 56/21/56 49/13/49 58/13/58 65/21/65 
f 58/13/58 57/12/57 23/12/23 22/13/22 
f 57/12/57 59/14/59 24/14/24 23/12/23 
f 59/16/59 60/15/60 25/15/25 24/16/24 
f 60/15/60 61/17/61 26/17/26 25/15/25 
f 61/17/61 62/18/62 27/18/27 26/17/26 
f 62/18/62 63/19/63 28/19/28 27/18/27 
f 63/19/63 64/20/64 29/20/29 28/19/28 
f 64/20/64 65/21/65 21/21/21 29/20/29 
f 65/21/65 58/13/58 22/13/22 21/21/21 
# 62 polygons - 2 triangles

