# 3ds Max Wavefront OBJ Exporter v0.97b - (c)2007 guruware
# File Created: 11.09.2017 11:40:03

mtllib casquilloES.mtl

#
# object casquilloES
#

v  -0.0275 0.0000 -3.0496
v  0.1311 0.8996 -3.0496
v  0.6722 0.5872 -3.0496
v  0.8859 0.0000 -3.0496
v  -0.8859 0.3124 -3.0496
v  -0.4843 0.7911 -3.0496
v  -0.4843 -0.7911 -3.0496
v  -0.8859 -0.3124 -3.0496
v  0.6722 -0.5872 -3.0496
v  0.1311 -0.8996 -3.0496
v  0.6722 0.5872 -2.8577
v  0.8859 0.0000 -2.8577
v  0.1311 0.8996 -2.8577
v  -0.4843 0.7911 -2.8577
v  -0.8859 0.3124 -2.8577
v  -0.8859 -0.3124 -2.8577
v  -0.4843 -0.7911 -2.8577
v  0.1311 -0.8996 -2.8577
v  0.6722 -0.5872 -2.8577
v  -0.0275 0.0000 -0.0004
v  0.5871 -0.5158 -0.0004
v  0.7749 0.0000 -0.0004
v  0.5871 0.5158 -0.0004
v  0.1118 0.7902 -0.0004
v  -0.4287 0.6949 -0.0004
v  -0.7816 0.2744 -0.0004
v  -0.7816 -0.2744 -0.0004
v  -0.4287 -0.6949 -0.0004
v  0.1118 -0.7902 -0.0004
v  0.6049 0.5307 -2.7881
v  0.7981 0.0000 -2.7881
v  0.1158 0.8131 -2.7881
v  -0.4404 0.7150 -2.7881
v  -0.8034 0.2824 -2.7881
v  -0.8034 -0.2824 -2.7881
v  -0.4404 -0.7150 -2.7881
v  0.1158 -0.8131 -2.7881
v  0.6049 -0.5307 -2.7881
v  0.6478 0.5666 -2.6768
v  0.8540 0.0000 -2.6768
v  0.1255 0.8681 -2.6768
v  -0.4683 0.7634 -2.6768
v  -0.8559 0.3015 -2.6768
v  -0.8559 -0.3015 -2.6768
v  -0.4683 -0.7634 -2.6768
v  0.1255 -0.8681 -2.6768
v  0.6478 -0.5666 -2.6768
v  0.6269 0.5491 -0.1827
v  0.8268 0.0000 -0.1827
v  0.1208 0.8413 -0.1827
v  -0.4547 0.7399 -0.1827
v  -0.8303 0.2922 -0.1827
v  -0.8303 -0.2922 -0.1827
v  -0.4547 -0.7399 -0.1827
v  0.1208 -0.8413 -0.1827
v  0.6269 -0.5491 -0.1827
# 56 vertices

vn 0.0000 0.0000 -1.0000
vn 0.1338 0.7586 -0.6377
vn 0.5901 0.4952 -0.6377
vn 0.7704 0.0000 -0.6376
vn -0.7239 0.2635 -0.6376
vn -0.3851 0.6672 -0.6376
vn -0.3852 -0.6671 -0.6376
vn -0.7239 -0.2635 -0.6376
vn 0.5901 -0.4952 -0.6376
vn 0.1338 -0.7586 -0.6376
vn 0.7015 0.5886 0.4020
vn 0.9156 -0.0000 0.4020
vn 0.1590 0.9018 0.4020
vn -0.4579 0.7930 0.4020
vn -0.8604 0.3131 0.4020
vn -0.8604 -0.3132 0.4020
vn -0.4578 -0.7930 0.4020
vn 0.1590 -0.9017 0.4020
vn 0.7014 -0.5886 0.4020
vn 0.0000 0.0000 1.0000
vn 0.5170 -0.4338 0.7379
vn 0.6749 0.0000 0.7379
vn 0.5170 0.4338 0.7379
vn 0.1172 0.6647 0.7379
vn -0.3375 0.5845 0.7379
vn -0.6342 0.2308 0.7379
vn -0.6342 -0.2308 0.7379
vn -0.3375 -0.5845 0.7379
vn 0.1172 -0.6647 0.7379
vn 0.7413 0.6220 0.2521
vn 0.9677 -0.0000 0.2521
vn 0.1680 0.9530 0.2521
vn -0.4839 0.8381 0.2521
vn -0.9093 0.3310 0.2521
vn -0.9093 -0.3310 0.2521
vn -0.4839 -0.8381 0.2521
vn 0.1680 -0.9530 0.2521
vn 0.7413 -0.6220 0.2521
vn 0.7482 0.6278 -0.2147
vn 0.9767 0.0000 -0.2147
vn 0.1696 0.9618 -0.2147
vn -0.4883 0.8458 -0.2147
vn -0.9178 0.3340 -0.2147
vn -0.9178 -0.3340 -0.2147
vn -0.4883 -0.8458 -0.2147
vn 0.1696 -0.9618 -0.2147
vn 0.7482 -0.6278 -0.2147
vn 0.7585 0.6365 0.1397
vn 0.9902 -0.0000 0.1397
vn 0.1719 0.9752 0.1397
vn -0.4951 0.8575 0.1397
vn -0.9305 0.3387 0.1397
vn -0.9305 -0.3387 0.1397
vn -0.4951 -0.8575 0.1397
vn 0.1719 -0.9752 0.1397
vn 0.7585 -0.6365 0.1397
# 56 vertex normals

vt 0.5000 0.0000 0.0000
vt 0.9722 0.0000 1.0000
vt 0.8611 0.0000 1.0000
vt 0.7500 0.0000 1.0000
vt 0.1944 0.0000 1.0000
vt 0.0833 0.0000 1.0000
vt -0.0278 0.0000 1.0000
vt 0.4167 0.0000 1.0000
vt 0.3056 0.0000 1.0000
vt 0.6389 0.0000 1.0000
vt 0.5278 0.0000 1.0000
vt 0.8611 1.0000 1.0000
vt 0.7500 1.0000 1.0000
vt 0.9722 1.0000 1.0000
vt 0.0833 1.0000 1.0000
vt -0.0278 1.0000 1.0000
vt 0.1944 1.0000 1.0000
vt 0.3056 1.0000 1.0000
vt 0.4167 1.0000 1.0000
vt 0.5278 1.0000 1.0000
vt 0.6389 1.0000 1.0000
vt 0.5000 1.0000 0.0000
vt 0.8624 1.0000 0.5321
# 23 texture coords

o casquilloES
g casquilloES
usemtl wire_225088199
s 1
f 1/1/1 2/2/2 3/3/3 4/4/4 
f 1/1/1 5/5/5 6/6/6 2/7/2 
f 1/1/1 7/8/7 8/9/8 5/5/5 
f 1/1/1 9/10/9 10/11/10 7/8/7 
f 1/1/1 4/4/4 9/10/9 
s 8
f 4/4/4 3/3/3 11/12/11 12/13/12 
f 3/3/3 2/2/2 13/14/13 11/12/11 
f 2/7/2 6/6/6 14/15/14 13/16/13 
f 6/6/6 5/5/5 15/17/15 14/15/14 
f 5/5/5 8/9/8 16/18/16 15/17/15 
f 8/9/8 7/8/7 17/19/17 16/18/16 
f 7/8/7 10/11/10 18/20/18 17/19/17 
f 10/11/10 9/10/9 19/21/19 18/20/18 
f 9/10/9 4/4/4 12/13/12 19/21/19 
s 1
f 20/22/20 21/21/21 22/13/22 23/12/23 
f 20/22/20 23/12/23 24/14/24 25/23/25 
f 20/22/20 25/15/25 26/17/26 27/18/27 
f 20/22/20 27/18/27 28/19/28 29/20/29 
f 20/22/20 29/20/29 21/21/21 
s off
f 12/13/12 11/12/11 30/12/30 31/13/31 
f 11/12/11 13/14/13 32/14/32 30/12/30 
f 13/16/13 14/15/14 33/15/33 32/16/32 
f 14/15/14 15/17/15 34/17/34 33/15/33 
f 15/17/15 16/18/16 35/18/35 34/17/34 
f 16/18/16 17/19/17 36/19/36 35/18/35 
f 17/19/17 18/20/18 37/20/37 36/19/36 
f 18/20/18 19/21/19 38/21/38 37/20/37 
f 19/21/19 12/13/12 31/13/31 38/21/38 
f 31/13/31 30/12/30 39/12/39 40/13/40 
f 30/12/30 32/14/32 41/14/41 39/12/39 
f 32/16/32 33/15/33 42/15/42 41/16/41 
f 33/15/33 34/17/34 43/17/43 42/15/42 
f 34/17/34 35/18/35 44/18/44 43/17/43 
f 35/18/35 36/19/36 45/19/45 44/18/44 
f 36/19/36 37/20/37 46/20/46 45/19/45 
f 37/20/37 38/21/38 47/21/47 46/20/46 
f 38/21/38 31/13/31 40/13/40 47/21/47 
f 40/13/40 39/12/39 48/12/48 49/13/49 
f 39/12/39 41/14/41 50/14/50 48/12/48 
f 41/16/41 42/15/42 51/15/51 50/16/50 
f 42/15/42 43/17/43 52/17/52 51/15/51 
f 43/17/43 44/18/44 53/18/53 52/17/52 
f 44/18/44 45/19/45 54/19/54 53/18/53 
f 45/19/45 46/20/46 55/20/55 54/19/54 
f 46/20/46 47/21/47 56/21/56 55/20/55 
f 47/21/47 40/13/40 49/13/49 56/21/56 
f 49/13/49 48/12/48 23/12/23 22/13/22 
f 48/12/48 50/14/50 24/14/24 23/12/23 
f 50/16/50 51/15/51 25/15/25 24/16/24 
f 51/15/51 52/17/52 26/17/26 25/15/25 
f 52/17/52 53/18/53 27/18/27 26/17/26 
f 53/18/53 54/19/54 28/19/28 27/18/27 
f 54/19/54 55/20/55 29/20/29 28/19/28 
f 55/20/55 56/21/56 21/21/21 29/20/29 
f 56/21/56 49/13/49 22/13/22 21/21/21 
# 53 polygons - 2 triangles

