# 3ds Max Wavefront OBJ Exporter v0.97b - (c)2007 guruware
# File Created: 27.07.2017 16:26:27

mtllib bunkerLow.mtl

#
# object bunkerLow
#

v  -16.0540 48.8583 20.2094
v  -0.0004 48.8583 20.2094
v  -0.0004 52.0636 18.8817
v  -16.0540 52.0636 18.8817
v  -19.2593 48.8583 18.8817
v  -18.3205 52.0636 17.9429
v  -16.0540 45.0617 20.2094
v  -0.0004 45.0617 20.2094
v  -19.2593 45.0617 18.8817
v  -16.0540 22.7817 20.2094
v  -0.0004 22.7817 20.2094
v  -0.0004 35.6573 20.2094
v  -16.0540 35.6573 20.2094
v  -19.2593 22.7817 18.8817
v  -19.2593 35.6573 18.8817
v  -16.0540 0.0195 20.2094
v  -0.0004 0.0195 20.2094
v  -19.2593 0.0195 18.8817
v  16.0540 48.8583 20.2094
v  16.0540 52.0636 18.8817
v  19.2593 48.8583 18.8817
v  18.3205 52.0636 17.9429
v  16.0540 45.0617 20.2094
v  19.2593 45.0617 18.8817
v  16.0540 22.7817 20.2094
v  16.0540 35.6573 20.2094
v  19.2593 22.7817 18.8817
v  19.2593 35.6573 18.8817
v  16.0540 0.0195 20.2094
v  19.2593 0.0195 18.8817
v  -20.5869 48.8583 15.6765
v  -19.2593 52.0636 15.6765
v  -20.5869 48.8583 5.4417
v  -19.2593 52.0636 5.4417
v  -20.5785 48.8621 -27.9012
v  -19.2486 52.0730 -27.9012
v  -20.5869 45.0617 15.6765
v  -20.5869 45.0617 5.4417
v  -20.5929 45.0617 -27.9012
v  -20.5929 35.6573 -27.9012
v  -20.5869 35.6573 5.4417
v  -20.5869 22.7817 15.6765
v  -20.5869 35.6573 15.6765
v  -20.5869 22.7817 5.4417
v  -20.5869 22.7817 -27.9011
v  -18.2139 45.0617 15.6745
v  -18.2139 47.9937 15.6745
v  -17.9211 47.9937 17.5261
v  -17.9211 45.0617 17.5261
v  -20.5869 0.0195 15.6765
v  -20.5869 0.0195 5.4417
v  -20.5869 0.0195 -27.9011
v  20.5869 48.8583 15.6765
v  19.2593 52.0636 15.6765
v  20.5869 48.8583 5.4417
v  19.2593 52.0636 5.4417
v  20.5785 48.8621 -27.9012
v  19.2486 52.0730 -27.9012
v  20.5869 45.0617 15.6765
v  20.5869 45.0617 5.4417
v  20.5929 45.0617 -27.9012
v  20.5929 35.6573 -27.9012
v  20.5869 35.6573 5.4417
v  20.5869 22.7817 15.6765
v  20.5869 35.6573 15.6765
v  20.5869 22.7817 5.4417
v  20.5869 22.7817 -27.9011
v  20.5869 0.0195 15.6765
v  20.5869 0.0195 5.4417
v  20.5869 0.0195 -27.9011
v  -18.2139 35.6573 15.6745
v  -18.2102 35.6573 5.4417
v  -0.0004 35.6573 18.3435
v  -16.0540 35.6573 18.3435
v  -17.9211 35.6573 17.5261
v  18.2102 35.6573 5.4417
v  18.2139 35.6573 15.6745
v  16.0540 35.6573 18.3435
v  17.9211 35.6573 17.5261
v  -18.2102 45.0617 5.4417
v  18.2102 45.0617 5.4417
v  -15.9979 22.8267 15.7180
v  -17.9211 22.8267 17.5261
v  -16.0540 22.8267 18.3435
v  -18.2139 22.8267 15.6745
v  -0.0004 22.8267 18.3435
v  -0.0004 22.8267 15.7734
v  -15.9593 22.8267 5.4417
v  -18.2102 22.8267 5.4417
v  -15.9593 22.8267 -27.9013
v  -18.2066 22.8117 -27.9012
v  -0.0004 22.8267 5.4417
v  -0.0004 22.8267 -27.9013
v  17.9211 22.8267 17.5261
v  15.9979 22.8267 15.7180
v  16.0540 22.8267 18.3435
v  18.2139 22.8267 15.6745
v  18.2102 22.8267 5.4417
v  15.9593 22.8267 5.4417
v  18.2066 22.8117 -27.9012
v  15.9593 22.8267 -27.9013
v  -18.2102 47.9937 5.4417
v  -18.2086 35.6573 -27.9012
v  -18.2102 45.0617 -27.9012
v  -18.2075 47.9953 -27.9013
v  -15.7905 47.9937 15.8088
v  -16.0540 47.9937 18.3435
v  -0.0004 47.9937 18.3435
v  -0.0004 47.9937 15.8037
v  -15.9593 47.9937 5.4417
v  -15.9593 47.9937 -27.9013
v  -0.0004 47.9937 5.4417
v  -0.0004 47.9937 -27.9013
v  16.0540 47.9937 18.3435
v  15.7905 47.9937 15.8088
v  17.9211 47.9937 17.5261
v  18.2139 47.9937 15.6745
v  15.9593 47.9937 5.4417
v  18.2102 47.9937 5.4417
v  18.2075 47.9953 -27.9013
v  15.9593 47.9937 -27.9013
v  -16.0014 53.3747 -27.9012
v  -0.0004 53.3746 -27.9012
v  -15.9593 0.0645 -27.9013
v  -18.2066 0.0495 -27.9012
v  -0.0004 0.0645 -27.9013
v  16.0014 53.3747 -27.9012
v  18.2086 35.6573 -27.9012
v  18.2102 45.0617 -27.9012
v  18.2066 0.0495 -27.9012
v  15.9593 0.0645 -27.9013
v  18.2139 45.0617 15.6745
v  17.9211 45.0617 17.5261
v  -16.0540 53.3912 5.4417
v  -0.0004 53.3912 5.4417
v  -16.0540 53.3912 15.6765
v  -0.0004 53.3912 15.6765
v  16.0540 53.3912 5.4417
v  16.0540 53.3912 15.6765
v  -16.0540 45.0617 18.3435
v  -0.0004 45.0617 18.3435
v  16.0540 45.0617 18.3435
# 142 vertices

vn -0.1877 0.1877 0.9641
vn 0.0000 0.1951 0.9808
vn 0.0000 0.3827 0.9239
vn -0.1898 0.3757 0.9071
vn -0.3769 0.1728 0.9100
vn -0.3574 0.3574 0.8629
vn -0.1951 0.0000 0.9808
vn 0.0000 0.0000 1.0000
vn -0.3827 0.0000 0.9239
vn 0.1877 0.1877 0.9641
vn 0.1898 0.3757 0.9071
vn 0.3769 0.1728 0.9100
vn 0.3574 0.3574 0.8629
vn 0.1951 0.0000 0.9808
vn 0.3827 0.0000 0.9239
vn -0.9641 0.1877 0.1877
vn -0.9100 0.1728 0.3769
vn -0.8629 0.3574 0.3574
vn -0.9071 0.3757 0.1899
vn -0.9808 0.1951 -0.0000
vn -0.9239 0.3827 -0.0001
vn -0.9804 0.1970 -0.0002
vn -0.9239 0.3827 -0.0002
vn -0.9808 0.0000 0.1951
vn -0.9239 0.0000 0.3827
vn -1.0000 0.0000 0.0001
vn -1.0000 0.0018 -0.0000
vn -1.0000 -0.0002 0.0002
vn -1.0000 -0.0000 0.0001
vn -1.0000 0.0000 -0.0000
vn -1.0000 -0.0002 0.0001
vn 0.9877 0.0000 -0.1562
vn 0.9641 0.1877 0.1877
vn 0.9071 0.3757 0.1899
vn 0.8629 0.3574 0.3574
vn 0.9100 0.1728 0.3769
vn 0.9808 0.1951 -0.0000
vn 0.9239 0.3827 -0.0001
vn 0.9804 0.1970 -0.0002
vn 0.9239 0.3827 -0.0002
vn 0.9808 0.0000 0.1951
vn 0.9239 0.0000 0.3827
vn 1.0000 0.0000 0.0001
vn 1.0000 0.0018 -0.0000
vn 1.0000 -0.0002 0.0002
vn 1.0000 -0.0000 0.0001
vn 1.0000 0.0000 -0.0000
vn 1.0000 -0.0002 0.0001
vn 0.0000 1.0000 -0.0000
vn -0.0001 1.0000 -0.0000
vn -0.0032 1.0000 -0.0002
vn -0.0067 1.0000 -0.0005
vn 0.0001 1.0000 -0.0000
vn 0.0067 1.0000 -0.0005
vn 0.0032 1.0000 -0.0002
vn 1.0000 0.0000 0.0004
vn 1.0000 0.0000 0.0002
vn 1.0000 0.0001 0.0001
vn 1.0000 -0.0004 0.0000
vn 1.0000 0.0002 0.0001
vn 1.0000 -0.0009 0.0000
vn 0.0000 -1.0000 -0.0000
vn -0.0000 -1.0000 -0.0000
vn -0.0007 -1.0000 -0.0000
vn -0.0004 -1.0000 -0.0000
vn 0.0007 -1.0000 -0.0000
vn 0.0004 -1.0000 -0.0000
vn -0.0000 0.0000 -1.0000
vn 0.0000 0.0000 -1.0000
vn -0.0000 -0.0000 -1.0000
vn 0.0000 -0.0000 -1.0000
vn -0.9969 0.0000 -0.0782
vn -1.0000 0.0000 0.0002
vn -0.9877 0.0000 -0.1562
vn -1.0000 -0.0004 0.0000
vn -1.0000 0.0001 0.0001
vn -1.0000 0.0002 0.0001
vn -1.0000 -0.0009 0.0000
vn -0.1950 0.9808 -0.0001
vn 0.0000 1.0000 -0.0002
vn 0.0000 1.0000 -0.0005
vn -0.1893 0.9819 -0.0008
vn -0.1657 0.9721 0.1657
vn 0.0000 0.9808 0.1951
vn -0.0683 0.9217 0.3818
vn 0.0000 0.9239 0.3827
vn -0.2706 0.9239 0.2706
vn -0.3818 0.9217 0.0683
vn -0.3827 0.9239 0.0001
vn -0.3728 0.9279 -0.0010
vn 0.1950 0.9808 -0.0001
vn 0.1893 0.9819 -0.0008
vn 0.1657 0.9721 0.1657
vn 0.0683 0.9217 0.3818
vn 0.2706 0.9239 0.2706
vn 0.3818 0.9217 0.0683
vn 0.3827 0.9239 0.0001
vn 0.3728 0.9279 -0.0010
vn 0.2049 0.0000 -0.9788
vn 0.7915 0.0000 -0.6111
vn 0.4010 0.0000 -0.9161
vn -0.2049 0.0000 -0.9788
vn -0.4010 0.0000 -0.9161
# 103 vertex normals

vt 0.8933 0.9632 0.0000
vt 0.9170 0.8735 0.0000
vt 0.9360 0.8794 0.0000
vt 0.9123 0.9687 0.0000
vt 0.8907 0.9828 0.0000
vt 0.9103 0.9827 0.0000
vt 0.8722 0.9588 0.0000
vt 0.8961 0.8670 0.0000
vt 0.8698 0.9797 0.0000
vt 0.2948 0.7414 0.0000
vt 0.2024 0.7373 0.0000
vt 0.2056 0.6626 0.0000
vt 0.2984 0.6667 0.0000
vt 0.3148 0.7423 0.0000
vt 0.3184 0.6679 0.0000
vt 0.2894 0.8734 0.0000
vt 0.1966 0.8695 0.0000
vt 0.3094 0.8738 0.0000
vt 0.9463 0.7855 0.0000
vt 0.9651 0.7918 0.0000
vt 0.9548 0.7678 0.0000
vt 0.9711 0.7790 0.0000
vt 0.9264 0.7772 0.0000
vt 0.9358 0.7585 0.0000
vt 0.1099 0.7333 0.0000
vt 0.1128 0.6586 0.0000
vt 0.0899 0.7325 0.0000
vt 0.0928 0.6581 0.0000
vt 0.1039 0.8653 0.0000
vt 0.0839 0.8640 0.0000
vt 0.0483 0.6725 0.0000
vt 0.0376 0.6841 0.0000
vt 0.0228 0.6715 0.0000
vt 0.0340 0.6564 0.0000
vt 0.0752 0.6199 0.0000
vt 0.0590 0.6106 0.0000
vt 0.0205 0.4377 0.0000
vt 0.0013 0.4458 0.0000
vt 0.0656 0.6861 0.0000
vt 0.0517 0.6976 0.0000
vt 0.1019 0.6206 0.0000
vt 0.0384 0.4352 0.0000
vt 0.0859 0.4164 0.0000
vt 0.1630 0.6007 0.0000
vt 0.2560 0.6037 0.0000
vt 0.2768 0.6247 0.0000
vt 0.2324 0.6662 0.0000
vt 0.2086 0.6511 0.0000
vt 0.2232 0.5639 0.0000
vt 0.1451 0.3846 0.0000
vt 0.6084 0.3922 0.0000
vt 0.6255 0.3892 0.0000
vt 0.6274 0.4001 0.0000
vt 0.6103 0.4031 0.0000
vt 0.3711 0.5182 0.0000
vt 0.3946 0.5458 0.0000
vt 0.3432 0.4813 0.0000
vt 0.2605 0.3239 0.0000
vt 0.3732 0.1904 0.0000
vt 0.3808 0.1689 0.0000
vt 0.4143 0.1749 0.0000
vt 0.4114 0.1987 0.0000
vt 0.3351 0.1789 0.0000
vt 0.3406 0.1564 0.0000
vt 0.2543 0.0138 0.0000
vt 0.2711 0.0059 0.0000
vt 0.3712 0.2131 0.0000
vt 0.4116 0.2175 0.0000
vt 0.3202 0.1979 0.0000
vt 0.2365 0.0224 0.0000
vt 0.1920 0.0411 0.0000
vt 0.2633 0.2278 0.0000
vt 0.2062 0.2952 0.0000
vt 0.2625 0.2897 0.0000
vt 0.2601 0.3196 0.0000
vt 0.2064 0.3203 0.0000
vt 0.1960 0.2421 0.0000
vt 0.1328 0.0587 0.0000
vt 0.0670 0.3512 0.0000
vt 0.0627 0.3236 0.0000
vt 0.0518 0.2718 0.0000
vt 0.0008 0.1022 0.0000
vt 0.3408 0.6530 0.0000
vt 0.3243 0.6525 0.0000
vt 0.3364 0.5927 0.0000
vt 0.3527 0.5956 0.0000
vt 0.3268 0.7727 0.0000
vt 0.3135 0.7723 0.0000
vt 0.3235 0.6788 0.0000
vt 0.3366 0.6804 0.0000
vt 0.3380 0.6663 0.0000
vt 0.3256 0.6654 0.0000
vt 0.3289 0.8930 0.0000
vt 0.3351 0.9510 0.0000
vt 0.3185 0.9528 0.0000
vt 0.3124 0.8924 0.0000
vt 0.3274 0.8654 0.0000
vt 0.3142 0.8662 0.0000
vt 0.3274 0.8795 0.0000
vt 0.3149 0.8797 0.0000
vt 0.0026 0.4742 0.0000
vt 0.0024 0.4734 0.0000
vt 0.0046 0.4727 0.0000
vt 0.0049 0.4734 0.0000
vt 0.0029 0.4756 0.0000
vt 0.0052 0.4764 0.0000
vt 0.0050 0.4771 0.0000
vt 0.0027 0.4764 0.0000
vt 0.6346 0.5131 0.0000
vt 0.6437 0.5248 0.0000
vt 0.6331 0.5278 0.0000
vt 0.6468 0.5147 0.0000
vt 0.5459 0.5179 0.0000
vt 0.5473 0.5035 0.0000
vt 0.6409 0.4554 0.0000
vt 0.6533 0.4568 0.0000
vt 0.6597 0.2688 0.0000
vt 0.6721 0.2702 0.0000
vt 0.5531 0.4459 0.0000
vt 0.5720 0.2592 0.0000
vt 0.4488 0.5044 0.0000
vt 0.4600 0.4948 0.0000
vt 0.4585 0.5095 0.0000
vt 0.4478 0.4938 0.0000
vt 0.4529 0.4358 0.0000
vt 0.4653 0.4370 0.0000
vt 0.4718 0.2493 0.0000
vt 0.4841 0.2504 0.0000
vt 0.9375 0.6531 0.0000
vt 0.9854 0.7070 0.0000
vt 0.9445 0.7432 0.0000
vt 0.8847 0.6931 0.0000
vt 0.8348 0.6659 0.0000
vt 0.8185 0.6604 0.0000
vt 0.8211 0.6029 0.0000
vt 0.8388 0.6028 0.0000
vt 0.7819 0.8653 0.0000
vt 0.7343 0.8385 0.0000
vt 0.8448 0.9032 0.0000
vt 0.7192 0.8301 0.0000
vt 0.7085 0.7105 0.0000
vt 0.7229 0.7100 0.0000
vt 0.7200 0.7206 0.0000
vt 0.7100 0.7239 0.0000
vt 0.7110 0.6227 0.0000
vt 0.6967 0.6244 0.0000
vt 0.6524 0.7317 0.0000
vt 0.6506 0.7194 0.0000
vt 0.4652 0.7557 0.0000
vt 0.4633 0.7433 0.0000
vt 0.6384 0.6317 0.0000
vt 0.4509 0.6550 0.0000
vt 0.7003 0.5352 0.0000
vt 0.6862 0.5383 0.0000
vt 0.6948 0.5256 0.0000
vt 0.6843 0.5249 0.0000
vt 0.6278 0.5438 0.0000
vt 0.6265 0.5314 0.0000
vt 0.4391 0.5540 0.0000
vt 0.4405 0.5664 0.0000
vt 0.7626 0.6000 0.0000
vt 0.7961 0.6139 0.0000
vt 0.7642 0.7010 0.0000
vt 0.7335 0.6916 0.0000
vt 0.7741 0.5827 0.0000
vt 0.7999 0.5967 0.0000
vt 0.7873 0.5113 0.0000
vt 0.8059 0.5169 0.0000
vt 0.7930 0.5695 0.0000
vt 0.7744 0.5666 0.0000
vt 0.7956 0.5822 0.0000
vt 0.8073 0.4366 0.0000
vt 0.8250 0.4462 0.0000
vt 0.7990 0.4174 0.0000
vt 0.9281 0.3726 0.0000
vt 0.9337 0.3803 0.0000
vt 0.7754 0.3434 0.0000
vt 0.9052 0.3235 0.0000
vt 0.9414 0.3854 0.0000
vt 0.7085 0.7797 0.0000
vt 0.7437 0.7838 0.0000
vt 0.7339 0.7999 0.0000
vt 0.7075 0.7927 0.0000
vt 0.6758 0.8694 0.0000
vt 0.6963 0.8170 0.0000
vt 0.7123 0.8255 0.0000
vt 0.6938 0.8749 0.0000
vt 0.7218 0.8072 0.0000
vt 0.6740 0.9297 0.0000
vt 0.6549 0.9253 0.0000
vt 0.7618 0.2390 0.0000
vt 0.7626 0.2219 0.0000
vt 0.8925 0.2120 0.0000
vt 0.8963 0.2308 0.0000
vt 0.7664 0.2013 0.0000
vt 0.8913 0.1894 0.0000
vt 0.3972 0.8908 0.0000
vt 0.4504 0.8515 0.0000
vt 0.4820 0.9207 0.0000
vt 0.4377 0.9490 0.0000
vt 0.3891 0.8985 0.0000
vt 0.4295 0.9558 0.0000
vt 0.4390 0.7974 0.0000
vt 0.3797 0.7749 0.0000
vt 0.3880 0.7596 0.0000
vt 0.4390 0.7809 0.0000
vt 0.3703 0.7695 0.0000
vt 0.3782 0.7547 0.0000
vt 0.6311 0.7524 0.0000
vt 0.6428 0.8040 0.0000
vt 0.6609 0.8728 0.0000
vt 0.6276 0.7360 0.0000
vt 0.6190 0.0251 0.0000
vt 0.6280 0.1173 0.0000
vt 0.4361 0.1364 0.0000
vt 0.4273 0.0443 0.0000
vt 0.6779 0.0198 0.0000
vt 0.6868 0.1114 0.0000
vt 0.6977 0.0175 0.0000
vt 0.7069 0.1094 0.0000
vt 0.6906 0.0047 0.0000
vt 0.6767 -0.0001 0.0000
vt 0.6172 0.0052 0.0000
vt 0.4255 0.0242 0.0000
vt 0.6375 0.2093 0.0000
vt 0.4457 0.2283 0.0000
vt 0.6963 0.2029 0.0000
vt 0.7162 0.2012 0.0000
vt 0.7118 0.2151 0.0000
vt 0.6992 0.2226 0.0000
vt 0.6397 0.2291 0.0000
vt 0.4480 0.2483 0.0000
vt 0.8341 0.1196 0.0000
vt 0.8114 0.0628 0.0000
vt 0.8945 0.0404 0.0000
vt 0.9142 0.0973 0.0000
vt 0.9052 0.0379 0.0000
vt 0.9245 0.0947 0.0000
vt 0.9150 0.0359 0.0000
vt 0.9340 0.0921 0.0000
vt 0.9374 0.7022 0.0000
vt 0.9501 0.7140 0.0000
vt 0.8883 0.7853 0.0000
vt 0.8746 0.7745 0.0000
vt 0.9467 0.6938 0.0000
vt 0.9584 0.7060 0.0000
vt 0.7555 0.1457 0.0000
vt 0.7303 0.0906 0.0000
vt 0.7454 0.1491 0.0000
vt 0.7204 0.0947 0.0000
vt 0.8196 0.8530 0.0000
vt 0.8341 0.8624 0.0000
vt 0.8137 0.8640 0.0000
vt 0.8283 0.8725 0.0000
vt 0.6454 0.8277 0.0000
vt 0.6445 0.8402 0.0000
vt 0.6042 0.8356 0.0000
vt 0.6052 0.8229 0.0000
vt 0.5848 0.8297 0.0000
vt 0.5878 0.8385 0.0000
vt 0.5282 0.8688 0.0000
vt 0.5259 0.8594 0.0000
vt 0.5940 0.8254 0.0000
vt 0.5964 0.8347 0.0000
vt 0.4152 0.9279 0.0000
vt 0.4457 0.8924 0.0000
vt 0.4520 0.9019 0.0000
vt 0.4214 0.9374 0.0000
vt 0.4653 0.8817 0.0000
vt 0.4666 0.8912 0.0000
vt 0.4559 0.8856 0.0000
vt 0.4580 0.8949 0.0000
# 272 texture coords

g bunkerLow
usemtl 14___Default
s 1
f 1/1/1 2/2/2 3/3/3 4/4/4 
f 5/5/5 1/1/1 4/4/4 6/6/6 
f 7/7/7 8/8/8 2/2/2 1/1/1 
f 9/9/9 7/7/7 1/1/1 5/5/5 
f 10/10/7 11/11/8 12/12/8 13/13/7 
f 14/14/9 10/10/7 13/13/7 15/15/9 
f 10/10/7 16/16/7 17/17/8 11/11/8 
f 14/14/9 18/18/9 16/16/7 10/10/7 
f 19/19/10 20/20/11 3/3/3 2/2/2 
f 21/21/12 22/22/13 20/20/11 19/19/10 
f 23/23/14 19/19/10 2/2/2 8/8/8 
f 24/24/15 21/21/12 19/19/10 23/23/14 
f 25/25/14 26/26/14 12/12/8 11/11/8 
f 27/27/15 28/28/15 26/26/14 25/25/14 
f 25/25/14 11/11/8 17/17/8 29/29/14 
f 27/27/15 25/25/14 29/29/14 30/30/15 
f 31/31/16 5/32/17 6/33/18 32/34/19 
f 33/35/20 31/31/16 32/34/19 34/36/21 
f 35/37/22 33/35/20 34/36/21 36/38/23 
f 37/39/24 9/40/25 5/32/17 31/31/16 
f 38/41/26 37/39/24 31/31/16 33/35/20 
f 39/42/27 38/41/26 33/35/20 35/37/22 
f 40/43/28 41/44/29 38/41/26 39/42/27 
f 42/45/24 14/46/25 15/47/25 43/48/24 
f 44/49/30 42/45/24 43/48/24 41/44/29 
f 45/50/31 44/49/30 41/44/29 40/43/28 
f 46/51/32 47/52/32 48/53/32 49/54/32 
f 42/45/24 50/55/24 18/56/25 14/46/25 
f 44/49/30 51/57/30 50/55/24 42/45/24 
f 45/50/31 52/58/30 51/57/30 44/49/30 
f 53/59/33 54/60/34 22/61/35 21/62/36 
f 55/63/37 56/64/38 54/60/34 53/59/33 
f 57/65/39 58/66/40 56/64/38 55/63/37 
f 59/67/41 53/59/33 21/62/36 24/68/42 
f 60/69/43 55/63/37 53/59/33 59/67/41 
f 61/70/44 57/65/39 55/63/37 60/69/43 
f 62/71/45 61/70/44 60/69/43 63/72/46 
f 64/73/41 65/74/41 28/75/42 27/76/42 
f 66/77/47 63/72/46 65/74/41 64/73/41 
f 67/78/48 62/71/45 63/72/46 66/77/47 
f 64/73/41 27/76/42 30/79/42 68/80/41 
f 66/77/47 64/73/41 68/80/41 69/81/47 
f 67/78/48 66/77/47 69/81/47 70/82/47 
f 43/83/49 71/84/49 72/85/49 41/86/49 
f 12/87/49 73/88/49 74/89/49 13/90/49 
f 15/91/49 13/90/49 74/89/49 75/92/49 
f 43/83/49 15/91/49 75/92/49 71/84/49 
f 65/93/49 63/94/49 76/95/49 77/96/49 
f 12/87/49 26/97/49 78/98/49 73/88/49 
f 78/98/49 26/97/49 28/99/49 79/100/49 
f 79/100/49 28/99/49 65/93/49 77/96/49 
f 41/101/8 72/102/8 80/103/8 38/104/8 
f 63/105/8 60/106/8 81/107/8 76/108/8 
f 82/109/49 83/110/49 84/111/49 
f 82/109/49 85/112/49 83/110/49 
f 86/113/49 87/114/49 82/109/49 84/111/49 
f 85/112/49 82/109/49 88/115/49 89/116/50 
f 89/116/50 88/115/49 90/117/51 91/118/52 
f 82/109/49 87/114/49 92/119/49 88/115/49 
f 88/115/49 92/119/49 93/120/49 90/117/51 
f 94/121/49 95/122/49 96/123/49 
f 97/124/49 95/122/49 94/121/49 
f 86/113/49 96/123/49 95/122/49 87/114/49 
f 97/124/49 98/125/53 99/126/49 95/122/49 
f 98/125/53 100/127/54 101/128/55 99/126/49 
f 95/122/49 99/126/49 92/119/49 87/114/49 
f 99/126/49 101/128/55 93/120/49 92/119/49 
f 71/129/56 85/130/56 89/131/57 72/132/43 
f 80/133/46 102/134/57 47/135/56 46/136/56 
f 72/132/43 103/137/58 104/138/59 80/133/46 
f 89/131/57 91/139/60 103/137/58 72/132/43 
f 80/133/46 104/138/59 105/140/61 102/134/57 
f 106/141/62 107/142/62 48/143/62 
f 106/141/62 48/143/62 47/144/62 
f 108/145/62 107/142/62 106/141/62 109/146/62 
f 47/144/62 102/147/62 110/148/63 106/141/62 
f 105/149/64 111/150/65 110/148/63 102/147/62 
f 106/141/62 110/148/63 112/151/62 109/146/62 
f 111/150/65 113/152/62 112/151/62 110/148/63 
f 114/153/62 115/154/62 116/155/62 
f 116/155/62 115/154/62 117/156/62 
f 115/154/62 114/153/62 108/145/62 109/146/62 
f 118/157/62 119/158/62 117/156/62 115/154/62 
f 120/159/66 119/158/62 118/157/62 121/160/67 
f 112/151/62 118/157/62 115/154/62 109/146/62 
f 121/160/67 118/157/62 112/151/62 113/152/62 
f 111/161/68 122/162/68 123/163/69 113/164/69 
f 111/161/68 105/165/68 36/166/68 122/162/68 
f 103/167/69 40/168/70 39/169/70 104/170/71 
f 105/165/68 104/170/71 39/169/70 35/171/68 
f 105/165/68 35/171/68 36/166/68 
f 40/168/70 103/167/69 91/172/70 45/173/70 
f 90/174/68 124/175/68 125/176/68 91/172/70 
f 93/177/69 126/178/69 124/175/68 90/174/68 
f 91/172/70 125/176/68 52/179/68 45/173/70 
f 121/180/69 113/164/69 123/163/69 127/181/69 
f 58/182/69 120/183/69 121/180/69 127/181/69 
f 128/184/69 129/185/71 61/186/71 62/187/71 
f 61/186/71 129/185/71 120/183/69 57/188/69 
f 57/188/69 120/183/69 58/182/69 
f 62/187/71 67/189/71 100/190/71 128/184/69 
f 101/191/69 100/192/71 130/193/69 131/194/69 
f 93/177/69 101/191/69 131/194/69 126/178/69 
f 100/192/71 67/195/71 70/196/69 130/193/69 
f 77/197/72 76/198/26 98/199/73 97/200/72 
f 79/201/74 77/197/72 97/200/72 94/202/74 
f 81/203/29 132/204/72 117/205/72 119/206/73 
f 132/204/72 133/207/74 116/208/74 117/205/72 
f 76/198/26 81/203/29 129/209/75 128/210/76 
f 98/199/73 76/198/26 128/210/76 100/211/77 
f 81/203/29 119/206/73 120/212/78 129/209/75 
f 134/213/79 135/214/80 123/215/81 122/216/82 
f 136/217/83 137/218/84 135/214/80 134/213/79 
f 4/219/85 3/220/86 137/218/84 136/217/83 
f 6/221/87 4/219/85 136/217/83 
f 32/222/88 6/221/87 136/217/83 
f 34/223/89 32/222/88 136/217/83 134/213/79 
f 36/224/90 34/223/89 134/213/79 122/216/82 
f 138/225/91 127/226/92 123/215/81 135/214/80 
f 139/227/93 138/225/91 135/214/80 137/218/84 
f 20/228/94 139/227/93 137/218/84 3/220/86 
f 20/228/94 22/229/95 139/227/93 
f 22/229/95 54/230/96 139/227/93 
f 56/231/97 138/225/91 139/227/93 54/230/96 
f 58/232/98 127/226/92 138/225/91 56/231/97 
f 73/233/69 86/234/69 84/235/99 74/236/99 
f 74/236/99 84/235/99 83/237/100 75/238/100 
f 75/238/100 83/237/100 85/239/32 71/240/32 
f 140/241/99 107/242/99 108/243/69 141/244/69 
f 49/245/101 48/246/101 107/242/99 140/241/99 
f 73/233/69 78/247/102 96/248/102 86/234/69 
f 78/247/102 79/249/103 94/250/103 96/248/102 
f 142/251/102 141/244/69 108/243/69 114/252/102 
f 133/253/103 142/251/102 114/252/102 116/254/103 
f 38/255/62 80/256/62 46/257/62 37/258/62 
f 7/259/62 140/260/62 141/261/62 8/262/62 
f 9/263/62 49/264/62 140/260/62 7/259/62 
f 37/258/62 46/257/62 49/264/62 9/263/62 
f 60/265/62 59/266/62 132/267/62 81/268/62 
f 23/269/62 8/262/62 141/261/62 142/270/62 
f 24/271/62 23/269/62 142/270/62 133/272/62 
f 59/266/62 24/271/62 133/272/62 132/267/62 
# 128 polygons - 14 triangles

